<svg width="16" height="16" viewBox="0 0 16 16" fill="none" xmlns="http://www.w3.org/2000/svg">
<path d="M14.1381 2.98661C14.7155 3.56402 14.725 4.49722 14.1594 5.08622L8.74248 10.7273C8.46719 11.014 8.08938 11.1797 7.69201 11.188L5.41668 11.2358L5.46474 8.94521C5.47289 8.55688 5.63135 8.18685 5.90679 7.91298L11.4438 2.40759C12.0301 1.82467 12.9775 1.82602 13.5621 2.41062L14.1381 2.98661Z" fill="#7E8299"/>
<path opacity="0.3" d="M8.60004 1.3335C8.96823 1.3335 9.26671 1.63197 9.26671 2.00016C9.26671 2.36835 8.96823 2.66683 8.60004 2.66683H4.00004C3.26366 2.66683 2.66671 3.26378 2.66671 4.00016V12.0002C2.66671 12.7365 3.26366 13.3335 4.00004 13.3335H12C12.7364 13.3335 13.3334 12.7365 13.3334 12.0002V8.66683C13.3334 8.29864 13.6319 8.00016 14 8.00016C14.3682 8.00016 14.6667 8.29864 14.6667 8.66683V12.0002C14.6667 13.4729 13.4728 14.6668 12 14.6668H4.00004C2.52728 14.6668 1.33337 13.4729 1.33337 12.0002V4.00016C1.33337 2.5274 2.52728 1.3335 4.00004 1.3335H8.60004Z" fill="#7E8299"/>
</svg>
